<?xml version="1.0" standalone="no"?><!DOCTYPE svg PUBLIC "-//W3C//DTD SVG 1.1//EN" "http://www.w3.org/Graphics/SVG/1.1/DTD/svg11.dtd"><svg t="1744168135895" class="icon" viewBox="0 0 1024 1024" version="1.1" xmlns="http://www.w3.org/2000/svg" p-id="6779" xmlns:xlink="http://www.w3.org/1999/xlink" width="200" height="200"><path d="M512 0C229.223921 0 0 229.223921 0 512S229.223921 1024 512 1024 1024 794.776079 1024 512 794.776079 0 512 0zM316.872238 566.677545C411.648 450.174733 506.423762 333.671921 601.209663 217.169109c38.922139-47.83398 106.120871 20.216396 67.584 67.584C574.007762 401.255921 479.232 517.758733 384.456238 634.271683 345.544238 682.105663 278.335366 614.045149 316.872238 566.677545zM238.186455 621.963406l121.409901 91.044752-139.55802 59.625188L238.186455 621.963406zM803.961663 823.133782 334.026772 823.133782l0-23.896713 469.934891 0L803.961663 823.133782z" fill="#6CBA4E" p-id="6780"></path></svg>